<?xml version="1.0" encoding="UTF-8" standalone="no"?>
<!-- Created with Inkscape (http://www.inkscape.org/) -->

<svg
   xmlns:dc="http://purl.org/dc/elements/1.1/"
   xmlns:cc="http://creativecommons.org/ns#"
   xmlns:rdf="http://www.w3.org/1999/02/22-rdf-syntax-ns#"
   xmlns:svg="http://www.w3.org/2000/svg"
   xmlns="http://www.w3.org/2000/svg"
   version="1.1"
   width="720"
   height="720"
   viewBox="0 0 720 720"
   id="svg2">
  <defs
     id="defs4">
    <filter
       color-interpolation-filters="sRGB"
       id="filter4191-8">
      <feGaussianBlur
         id="feGaussianBlur4193-9"
         stdDeviation="0.3914278" />
    </filter>
    <filter
       color-interpolation-filters="sRGB"
       id="filter4309">
      <feGaussianBlur
         id="feGaussianBlur4311"
         stdDeviation="0.3914278" />
    </filter>
    <filter
       color-interpolation-filters="sRGB"
       id="filter4313">
      <feGaussianBlur
         id="feGaussianBlur4315"
         stdDeviation="0.38608032" />
    </filter>
    <filter
       color-interpolation-filters="sRGB"
       id="filter4309-7">
      <feGaussianBlur
         id="feGaussianBlur4311-3"
         stdDeviation="0.3914278" />
    </filter>
    <filter
       color-interpolation-filters="sRGB"
       id="filter4191-8-0">
      <feGaussianBlur
         id="feGaussianBlur4193-9-9"
         stdDeviation="0.3914278" />
    </filter>
    <filter
       color-interpolation-filters="sRGB"
       id="filter4647">
      <feGaussianBlur
         id="feGaussianBlur4649"
         stdDeviation="0.31337109" />
    </filter>
    <filter
       color-interpolation-filters="sRGB"
       id="filter4309-7-9">
      <feGaussianBlur
         id="feGaussianBlur4311-3-4"
         stdDeviation="0.3914278" />
    </filter>
  </defs>
  <metadata
     id="metadata7">
    <rdf:RDF>
      <cc:Work
         rdf:about="">
        <dc:format>image/svg+xml</dc:format>
        <dc:type
           rdf:resource="http://purl.org/dc/dcmitype/StillImage" />
        <dc:title></dc:title>
      </cc:Work>
    </rdf:RDF>
  </metadata>
  <g
     id="layer4"
     style="display:inline">
    <path
       d="M 302.95729,208.3486 C 276.96234,151.30412 241.12076,53.509844 170.0942,76.207596 c -49.7407,15.895509 -36.1041,46.213244 -43.32492,52.711984 -7.22082,6.49874 -33.195435,-0.86892 -52.711982,20.2183 -20.656802,22.31926 -10.619747,37.49693 -16.18489,45.43984 -5.565173,7.9429 -30.12243,14.93701 -21.626182,57.21968 8.352206,41.56584 86.301304,71.88956 149.186904,86.10296 63.12022,14.26643 142.79703,18.47505 151.46201,5.47757 8.66498,-12.99748 -7.89103,-77.87103 -33.93785,-135.02933 z"
       id="path3918"
       style="color:#000000;fill:#f18e7b;fill-opacity:1;stroke:none;stroke-width:1px;marker:none;visibility:visible;display:inline;overflow:visible;enable-background:accumulate" />
    <g
       transform="matrix(2.8883279,0,0,2.8883279,-266.04332,-1028.5778)"
       id="g4258"
       style="opacity:0.62999998;color:#000000;fill:none;stroke:#fad0be;stroke-width:2.07732654;stroke-linecap:butt;stroke-linejoin:miter;stroke-miterlimit:4;stroke-opacity:1;stroke-dasharray:none;stroke-dashoffset:0;marker:none;visibility:visible;display:inline;overflow:visible;filter:url(#filter4313);enable-background:accumulate">
      <path
         d="m 155.03316,381.82618 c 17.85445,13.43503 38.7141,68.05903 49.67425,88.56513"
         id="path3937"
         style="color:#000000;fill:none;stroke:#fad0be;stroke-width:2.07732654;stroke-linecap:butt;stroke-linejoin:miter;stroke-miterlimit:4;stroke-opacity:1;stroke-dasharray:none;stroke-dashoffset:0;marker:none;visibility:visible;display:inline;overflow:visible;filter:url(#filter4191-8);enable-background:accumulate" />
      <path
         d="m 143.80784,385.98043 c 22.27386,20.68288 47.46454,67.79387 57.89437,82.28955"
         id="path3939"
         style="color:#000000;fill:none;stroke:#fad0be;stroke-width:2.07732654;stroke-linecap:butt;stroke-linejoin:miter;stroke-miterlimit:4;stroke-opacity:1;stroke-dasharray:none;stroke-dashoffset:0;marker:none;visibility:visible;display:inline;overflow:visible;filter:url(#filter4191-8);enable-background:accumulate" />
      <path
         d="m 137.97421,393.22828 c 19.26866,21.03642 54.18205,63.37445 62.66734,74.3346"
         id="path3945"
         style="color:#000000;fill:none;stroke:#fad0be;stroke-width:2.07732654;stroke-linecap:butt;stroke-linejoin:miter;stroke-miterlimit:4;stroke-opacity:1;stroke-dasharray:none;stroke-dashoffset:0;marker:none;visibility:visible;display:inline;overflow:visible;filter:url(#filter4191-8);enable-background:accumulate" />
      <path
         d="m 136.29483,400.56451 c 28.46104,38.53732 51.79557,57.27565 62.40218,65.76093"
         id="path3947"
         style="color:#000000;fill:none;stroke:#fad0be;stroke-width:2.07732654;stroke-linecap:butt;stroke-linejoin:miter;stroke-miterlimit:4;stroke-opacity:1;stroke-dasharray:none;stroke-dashoffset:0;marker:none;visibility:visible;display:inline;overflow:visible;filter:url(#filter4191-8);enable-background:accumulate" />
      <path
         d="m 127.54438,402.86261 c 24.57196,34.1179 47.11099,48.26004 69.38486,63.10928"
         id="path3949"
         style="color:#000000;fill:none;stroke:#fad0be;stroke-width:2.07732654;stroke-linecap:butt;stroke-linejoin:miter;stroke-miterlimit:4;stroke-opacity:1;stroke-dasharray:none;stroke-dashoffset:0;marker:none;visibility:visible;display:inline;overflow:visible;filter:url(#filter4191-8);enable-background:accumulate" />
      <path
         d="m 112.96031,421.77771 c 34.29468,24.92551 65.05382,36.06245 86.62058,45.60839"
         id="path3951"
         style="color:#000000;fill:none;stroke:#fad0be;stroke-width:2.07732654;stroke-linecap:butt;stroke-linejoin:miter;stroke-miterlimit:4;stroke-opacity:1;stroke-dasharray:none;stroke-dashoffset:0;marker:none;visibility:visible;display:inline;overflow:visible;filter:url(#filter4191-8);enable-background:accumulate" />
      <path
         d="m 109.42478,426.10875 c 24.57196,15.55635 74.77654,41.80768 94.92908,45.87355"
         id="path3953"
         style="color:#000000;fill:none;stroke:#fad0be;stroke-width:2.07732654;stroke-linecap:butt;stroke-linejoin:miter;stroke-miterlimit:4;stroke-opacity:1;stroke-dasharray:none;stroke-dashoffset:0;marker:none;visibility:visible;display:inline;overflow:visible;filter:url(#filter4191-8);enable-background:accumulate" />
      <path
         d="m 105.00536,432.11915 c 42.07285,21.92031 70.00357,36.15084 101.6466,41.10059"
         id="path3955"
         style="color:#000000;fill:none;stroke:#fad0be;stroke-width:2.07732654;stroke-linecap:butt;stroke-linejoin:miter;stroke-miterlimit:4;stroke-opacity:1;stroke-dasharray:none;stroke-dashoffset:0;marker:none;visibility:visible;display:inline;overflow:visible;filter:url(#filter4191-8);enable-background:accumulate" />
    </g>
    <path
       d="M 302.95729,208.3486 C 276.96234,151.30412 241.12076,53.509844 170.0942,76.207596 c -49.7407,15.895509 -36.1041,46.213244 -43.32492,52.711984 -7.22082,6.49874 -33.195435,-0.86892 -52.711982,20.2183 -20.656802,22.31926 -10.619747,37.49693 -16.18489,45.43984 -5.565173,7.9429 -30.12243,14.93701 -21.626182,57.21968 8.352206,41.56584 86.301304,71.88956 149.186904,86.10296 63.12022,14.26643 142.79703,18.47505 151.46201,5.47757 8.66498,-12.99748 -7.89103,-77.87103 -33.93785,-135.02933 z"
       id="path3918-3"
       style="color:#000000;fill:none;stroke:#ee7063;stroke-width:7;stroke-linecap:butt;stroke-linejoin:miter;stroke-miterlimit:4;stroke-opacity:1;stroke-dasharray:none;stroke-dashoffset:0;marker:none;visibility:visible;display:inline;overflow:visible;enable-background:accumulate" />
  </g>
  <g
     id="layer8"
     style="display:inline">
    <path
       d="m 342.26578,352.25801 c -20.37906,3.47882 -43.73463,85.48133 -55.66226,134.18582 -11.92764,48.70449 -53.19246,174.78627 -15.90351,203.76365 45.28918,35.19442 70.03949,4.09649 86.93696,4.09649 16.89747,0 27.87092,16.95027 60.12049,9.11625 24.64847,-5.98756 30.9543,-19.99996 42.279,-22.86128 11.3247,-2.86136 40.71682,-1.1465 49.33671,-25.26097 C 522.40467,618.84181 503.21812,532.04582 455.09589,468.7729 410.17673,409.71144 362.64484,348.77919 342.26578,352.25801 z"
       id="path4349"
       style="color:#000000;fill:#ea4e45;fill-opacity:1;stroke:none;stroke-width:2.5;marker:none;visibility:visible;display:inline;overflow:visible;enable-background:accumulate" />
    <g
       transform="matrix(2.8883279,0,0,2.8883279,-266.04332,-1028.5778)"
       id="g4651"
       style="opacity:0.62999998;color:#000000;fill:none;stroke:#f9bba1;stroke-width:2.07732654;stroke-linecap:butt;stroke-linejoin:miter;stroke-miterlimit:4;stroke-opacity:1;stroke-dasharray:none;stroke-dashoffset:0;marker:none;visibility:visible;display:inline;overflow:visible;filter:url(#filter4309-7-9);enable-background:accumulate">
      <path
         d="m 187.49255,596.14055 c 5.35345,-55.96793 18.85876,-88.33199 22.75218,-113.39589"
         id="path4375"
         style="color:#000000;fill:none;stroke:#f9bba1;stroke-width:2.07732654;stroke-linecap:butt;stroke-linejoin:miter;stroke-miterlimit:4;stroke-opacity:1;stroke-dasharray:none;stroke-dashoffset:0;marker:none;visibility:visible;display:inline;overflow:visible;filter:url(#filter4309-7-9);enable-background:accumulate" />
      <path
         d="m 199.29448,600.88566 c -2.67673,-36.98751 10.22023,-98.18723 12.16695,-113.0309"
         id="path4377"
         style="color:#000000;fill:none;stroke:#f9bba1;stroke-width:2.07732654;stroke-linecap:butt;stroke-linejoin:miter;stroke-miterlimit:4;stroke-opacity:1;stroke-dasharray:none;stroke-dashoffset:0;marker:none;visibility:visible;display:inline;overflow:visible;filter:url(#filter4309-7-9);enable-background:accumulate" />
      <path
         d="m 214.62483,596.50556 c 3.51286,-45.36714 1.46914,-96.97962 -0.73001,-107.92077"
         id="path4379"
         style="color:#000000;fill:none;stroke:#f9bba1;stroke-width:2.07732654;stroke-linecap:butt;stroke-linejoin:miter;stroke-miterlimit:4;stroke-opacity:1;stroke-dasharray:none;stroke-dashoffset:0;marker:none;visibility:visible;display:inline;overflow:visible;filter:url(#filter4309-7-9);enable-background:accumulate" />
      <path
         d="m 224.84506,599.06061 c 4.13676,-34.79745 -5.11011,-97.57886 -9.24687,-109.50247"
         id="path4381"
         style="color:#000000;fill:none;stroke:#f9bba1;stroke-width:2.07732654;stroke-linecap:butt;stroke-linejoin:miter;stroke-miterlimit:4;stroke-opacity:1;stroke-dasharray:none;stroke-dashoffset:0;marker:none;visibility:visible;display:inline;overflow:visible;filter:url(#filter4309-7-9);enable-background:accumulate" />
      <path
         d="m 247.71892,593.46382 c -8.51686,-44.77434 -27.98398,-99.0389 -32.85075,-107.7991"
         id="path4383"
         style="color:#000000;fill:none;stroke:#f9bba1;stroke-width:2.07732654;stroke-linecap:butt;stroke-linejoin:miter;stroke-miterlimit:4;stroke-opacity:1;stroke-dasharray:none;stroke-dashoffset:0;marker:none;visibility:visible;display:inline;overflow:visible;filter:url(#filter4309-7-9);enable-background:accumulate" />
      <path
         d="M 260.37253,589.81374 C 253.55905,543.09268 227.27845,516.8121 216.81488,486.63808"
         id="path4385"
         style="color:#000000;fill:none;stroke:#f9bba1;stroke-width:2.07732654;stroke-linecap:butt;stroke-linejoin:miter;stroke-miterlimit:4;stroke-opacity:1;stroke-dasharray:none;stroke-dashoffset:0;marker:none;visibility:visible;display:inline;overflow:visible;filter:url(#filter4309-7-9);enable-background:accumulate" />
    </g>
    <path
       d="m 342.26578,352.25801 c -20.37906,3.47882 -43.73463,85.48133 -55.66226,134.18582 -11.92764,48.70449 -53.19246,174.78627 -15.90351,203.76365 45.28918,35.19442 70.03949,4.09649 86.93696,4.09649 16.89747,0 27.87092,16.95027 60.12049,9.11625 24.64847,-5.98756 30.9543,-19.99996 42.279,-22.86128 11.3247,-2.86136 40.71682,-1.1465 49.33671,-25.26097 C 522.40467,618.84181 503.21812,532.04582 455.09589,468.7729 410.17673,409.71144 362.64484,348.77919 342.26578,352.25801 z"
       id="path4349-4"
       style="color:#000000;fill:none;stroke:#d54139;stroke-width:7;stroke-linecap:butt;stroke-linejoin:miter;stroke-miterlimit:4;stroke-opacity:1;stroke-dasharray:none;stroke-dashoffset:0;marker:none;visibility:visible;display:inline;overflow:visible;enable-background:accumulate" />
  </g>
  <g
     id="layer3"
     style="display:inline">
    <path
       d="M 43.007772,470.46436 C 37.173841,460.35969 19.815828,451.97427 16.272485,419.69535 10.61012,368.11242 66.763172,336.47708 116.66013,331.10254 c 59.78937,-6.44008 210.68989,1.73548 224.23173,16.32633 13.54184,14.59085 6.74899,172.57909 -22.0263,228.20919 -36.61987,70.79569 -80.58472,92.20848 -129.47516,71.49483 -42.40378,-17.96537 -47.46124,-28.73395 -56.12238,-39.47295 -8.66114,-10.73901 -30.71745,-11.93689 -62.401603,-59.28698 -26.517912,-39.62945 -22.024713,-67.80393 -27.858645,-77.9086 z"
       id="path3902"
       style="fill:#c43630;fill-opacity:1;stroke:none" />
    <g
       transform="matrix(2.8883279,0,0,2.8883279,-266.04332,-1028.5778)"
       id="g4056"
       style="opacity:0.62999998;stroke:#f8bca2;stroke-width:2.07732654;stroke-miterlimit:4;stroke-opacity:1;stroke-dasharray:none;filter:url(#filter4309)">
      <path
         d="m 108.18734,521.83333 c 35.70889,-5.65686 63.99316,-27.4004 102.17693,-45.43162"
         id="path3904"
         style="color:#000000;fill:none;stroke:#f8bca2;stroke-width:2.07732654;stroke-linecap:butt;stroke-linejoin:miter;stroke-miterlimit:4;stroke-opacity:1;stroke-dasharray:none;stroke-dashoffset:0;marker:none;visibility:visible;display:inline;overflow:visible;enable-background:accumulate" />
      <path
         d="m 102.00015,512.11062 c 30.89621,-15.30848 58.67095,-22.26889 105.71247,-36.76957"
         id="path3904-4"
         style="color:#000000;fill:none;stroke:#f8bca2;stroke-width:2.07732654;stroke-linecap:butt;stroke-linejoin:miter;stroke-miterlimit:4;stroke-opacity:1;stroke-dasharray:none;stroke-dashoffset:0;marker:none;visibility:visible;display:inline;overflow:visible;enable-background:accumulate" />
      <path
         d="m 100.58594,510.16607 c 24.04163,-24.39519 66.99837,-41.89609 107.30346,-34.11791"
         id="path3904-1"
         style="color:#000000;fill:none;stroke:#f8bca2;stroke-width:2.07732654;stroke-linecap:butt;stroke-linejoin:miter;stroke-miterlimit:4;stroke-opacity:1;stroke-dasharray:none;stroke-dashoffset:0;marker:none;visibility:visible;display:inline;overflow:visible;enable-background:accumulate" />
      <path
         d="M 97.757512,498.67558 C 124.98113,476.04816 164.93266,468.26999 207.71262,475.34106"
         id="path3904-47"
         style="color:#000000;fill:none;stroke:#f8bca2;stroke-width:2.07732654;stroke-linecap:butt;stroke-linejoin:miter;stroke-miterlimit:4;stroke-opacity:1;stroke-dasharray:none;stroke-dashoffset:0;marker:none;visibility:visible;display:inline;overflow:visible;enable-background:accumulate" />
      <path
         d="m 118.44038,547.64273 c 25.27907,-28.1075 65.23061,-40.83543 91.57034,-70.88746"
         id="path3904-0"
         style="color:#000000;fill:none;stroke:#f8bca2;stroke-width:2.07732654;stroke-linecap:butt;stroke-linejoin:miter;stroke-miterlimit:4;stroke-opacity:1;stroke-dasharray:none;stroke-dashoffset:0;marker:none;visibility:visible;display:inline;overflow:visible;enable-background:accumulate" />
      <path
         d="m 135.58773,563.90618 c 34.64823,-24.04163 51.26524,-70.35713 75.1301,-85.7367"
         id="path3904-9"
         style="color:#000000;fill:none;stroke:#f8bca2;stroke-width:2.07732654;stroke-linecap:butt;stroke-linejoin:miter;stroke-miterlimit:4;stroke-opacity:1;stroke-dasharray:none;stroke-dashoffset:0;marker:none;visibility:visible;display:inline;overflow:visible;enable-background:accumulate" />
      <path
         d="m 146.72466,574.15923 c 20.25583,-21.22212 51.48986,-72.14732 63.63961,-95.28265"
         id="path3904-17"
         style="color:#000000;fill:none;stroke:#f8bca2;stroke-width:2.07732654;stroke-linecap:butt;stroke-linejoin:miter;stroke-miterlimit:4;stroke-opacity:1;stroke-dasharray:none;stroke-dashoffset:0;marker:none;visibility:visible;display:inline;overflow:visible;enable-background:accumulate" />
      <path
         d="m 167.23075,582.29096 c -2.47488,-38.007 26.87006,-40.12832 44.54773,-97.05042"
         id="path3904-5"
         style="color:#000000;fill:none;stroke:#f8bca2;stroke-width:2.07732654;stroke-linecap:butt;stroke-linejoin:miter;stroke-miterlimit:4;stroke-opacity:1;stroke-dasharray:none;stroke-dashoffset:0;marker:none;visibility:visible;display:inline;overflow:visible;enable-background:accumulate" />
      <path
         d="m 178.36769,580.87674 c 5.83363,-25.10229 23.33452,-42.24963 33.58757,-92.45421"
         id="path3904-5-9"
         style="color:#000000;fill:none;stroke:#f8bca2;stroke-width:2.07732654;stroke-linecap:butt;stroke-linejoin:miter;stroke-miterlimit:4;stroke-opacity:1;stroke-dasharray:none;stroke-dashoffset:0;marker:none;visibility:visible;display:inline;overflow:visible;enable-background:accumulate" />
    </g>
    <path
       d="M 43.007772,470.46436 C 37.173841,460.35969 19.815828,451.97427 16.272485,419.69535 10.61012,368.11242 66.763172,336.47708 116.66013,331.10254 c 59.78937,-6.44008 210.68987,1.73548 224.2317,16.32633 13.54184,14.59085 6.74899,172.57909 -22.0263,228.20919 -36.61984,70.79569 -80.58469,92.20848 -129.47513,71.49483 -42.40378,-17.96537 -47.46124,-28.73395 -56.12238,-39.47295 -8.66114,-10.73901 -30.71745,-11.93689 -62.401603,-59.28698 -26.517912,-39.62945 -22.024713,-67.80393 -27.858645,-77.9086 z"
       id="path3902-7"
       style="fill:none;stroke:#d44848;stroke-width:7;stroke-linecap:butt;stroke-linejoin:miter;stroke-miterlimit:4;stroke-opacity:1;stroke-dasharray:none;display:inline" />
  </g>
  <g
     id="layer5"
     style="display:inline">
    <path
       d="M 336.45178,337.21476 C 370.16807,338.23648 418.24692,259.0108 440.98363,222.90294 474.65816,169.42489 525.42841,69.275176 496.35377,43.218097 470.22879,19.804531 446.96553,32.583331 435.75385,30.963961 424.54217,29.344591 421.45524,13.228501 385.83999,9.5404528 351.3624,5.9702196 341.85677,17.039101 329.9743,17.338216 318.09184,17.637331 290.39612,1.8453407 262.75173,14.821558 c -21.56061,10.120528 -19.94925,93.897062 -1.56804,156.188932 18.3812,62.29188 41.5518,165.18255 75.26809,166.20427 z"
       id="path4125"
       style="color:#000000;fill:#fac291;fill-opacity:1;stroke:none;stroke-width:2.5;marker:none;visibility:visible;display:inline;overflow:visible;enable-background:accumulate" />
    <g
       transform="matrix(2.8883279,0,0,2.8883279,-266.04332,-1028.5778)"
       id="g4357"
       style="opacity:0.62999998;stroke:#f9e2bf;stroke-width:2.07732654;stroke-miterlimit:4;stroke-opacity:1;stroke-dasharray:none;filter:url(#filter4647)">
      <path
         d="m 191.73483,359.4974 c -2,35.75 10.87629,85.90736 17.12629,109.15736"
         id="path4144"
         style="color:#000000;fill:none;stroke:#f9e2bf;stroke-width:2.07732654;stroke-linecap:butt;stroke-linejoin:miter;stroke-miterlimit:4;stroke-opacity:1;stroke-dasharray:none;stroke-dashoffset:0;marker:none;visibility:visible;display:inline;overflow:visible;enable-background:accumulate" />
      <path
         d="m 202.57322,361.71967 c 0.25,45 3.38314,81.27043 7.63314,106.77043"
         id="path4146"
         style="color:#000000;fill:none;stroke:#f9e2bf;stroke-width:2.07732654;stroke-linecap:butt;stroke-linejoin:miter;stroke-miterlimit:4;stroke-opacity:1;stroke-dasharray:none;stroke-dashoffset:0;marker:none;visibility:visible;display:inline;overflow:visible;enable-background:accumulate" />
      <path
         d="m 215.83839,359.78033 c -2,28 -7.01101,75.67603 -5.01101,108.67603"
         id="path4148"
         style="color:#000000;fill:none;stroke:#f9e2bf;stroke-width:2.07732654;stroke-linecap:butt;stroke-linejoin:miter;stroke-miterlimit:4;stroke-opacity:1;stroke-dasharray:none;stroke-dashoffset:0;marker:none;visibility:visible;display:inline;overflow:visible;enable-background:accumulate" />
      <path
         d="m 230.92678,360.35095 c -6.5,45.75 -10.97837,76.70859 -19.72837,107.95859"
         id="path4150"
         style="color:#000000;fill:none;stroke:#f9e2bf;stroke-width:2.07732654;stroke-linecap:butt;stroke-linejoin:miter;stroke-miterlimit:4;stroke-opacity:1;stroke-dasharray:none;stroke-dashoffset:0;marker:none;visibility:visible;display:inline;overflow:visible;enable-background:accumulate" />
      <path
         d="m 247.29289,366.51777 c -15.25,43 -25.27504,76.43859 -36.02504,101.18859"
         id="path4152"
         style="color:#000000;fill:none;stroke:#f9e2bf;stroke-width:2.07732654;stroke-linecap:butt;stroke-linejoin:miter;stroke-miterlimit:4;stroke-opacity:1;stroke-dasharray:none;stroke-dashoffset:0;marker:none;visibility:visible;display:inline;overflow:visible;enable-background:accumulate" />
      <path
         d="m 262.51777,370.11091 c -17,42.75 -44.67254,84.49227 -49.92254,98.49227"
         id="path4154"
         style="color:#000000;fill:none;stroke:#f9e2bf;stroke-width:2.07732654;stroke-linecap:butt;stroke-linejoin:miter;stroke-miterlimit:4;stroke-opacity:1;stroke-dasharray:none;stroke-dashoffset:0;marker:none;visibility:visible;display:inline;overflow:visible;enable-background:accumulate" />
    </g>
    <path
       d="M 336.45178,337.21476 C 370.16807,338.23648 418.24692,259.0108 440.98363,222.90294 474.65816,169.42489 525.42841,69.275176 496.35377,43.218097 470.22879,19.804531 446.96553,32.583331 435.75385,30.963961 424.54217,29.344591 421.45524,13.228501 385.83999,9.5404528 351.3624,5.9702196 341.85677,17.039101 329.9743,17.338216 318.09184,17.637331 290.39612,1.8453407 262.75173,14.821558 c -21.56061,10.120528 -19.94925,93.897062 -1.56804,156.188932 18.3812,62.29188 41.5518,165.18255 75.26809,166.20427 z"
       id="path4125-0"
       style="color:#000000;fill:none;stroke:#f1877a;stroke-width:7;stroke-linecap:butt;stroke-linejoin:miter;stroke-miterlimit:4;stroke-opacity:1;stroke-dasharray:none;stroke-dashoffset:0;marker:none;visibility:visible;display:inline;overflow:visible;enable-background:accumulate" />
  </g>
  <g
     id="layer7"
     style="display:inline">
    <path
       d="m 349.50457,346.00123 c -11.16616,20.33821 54.05988,118.47765 93.9426,152.99227 44.01102,38.0872 104.34377,106.17716 160.14982,101.10017 44.25424,-4.02607 37.57706,-43.83991 47.41866,-59.04967 9.8416,-15.20976 16.25984,-9.32785 27.73546,-34.89296 10.25076,-22.83654 -5.36819,-36.68237 -3e-5,-49.20807 5.36816,-12.52567 31.81273,-34.8309 25.05139,-59.94433 -6.26285,-23.26199 -93.94264,-60.83902 -174.46486,-70.68062 -76.62774,-9.3656 -168.66688,-0.65501 -179.83304,19.68321 z"
       id="path4193"
       style="color:#000000;fill:#f18e7b;fill-opacity:1;stroke:none;stroke-width:2.5;marker:none;visibility:visible;display:inline;overflow:visible;enable-background:accumulate" />
    <g
       transform="matrix(2.8883279,0,0,2.8883279,-266.04332,-1028.5778)"
       id="g4479"
       style="opacity:0.62999998;color:#000000;fill:none;stroke:#fcded0;stroke-width:2.07732654;stroke-linecap:butt;stroke-linejoin:miter;stroke-miterlimit:4;stroke-opacity:1;stroke-dasharray:none;stroke-dashoffset:0;marker:none;visibility:visible;display:inline;overflow:visible;filter:url(#filter4191-8-0);enable-background:accumulate">
      <path
         d="M 304.34029,563.106 C 274.29346,524.38586 231.0818,516.48695 216.21326,478.07657"
         id="path4212"
         style="color:#000000;fill:none;stroke:#fcded0;stroke-width:2.07732654;stroke-linecap:butt;stroke-linejoin:miter;stroke-miterlimit:4;stroke-opacity:1;stroke-dasharray:none;stroke-dashoffset:0;marker:none;visibility:visible;display:inline;overflow:visible;filter:url(#filter4191-8-0);enable-background:accumulate" />
      <path
         d="M 312.54897,556.60101 C 273.51906,523.76633 227.05489,488.29868 220.24015,479.62537"
         id="path4214"
         style="color:#000000;fill:none;stroke:#fcded0;stroke-width:2.07732654;stroke-linecap:butt;stroke-linejoin:miter;stroke-miterlimit:4;stroke-opacity:1;stroke-dasharray:none;stroke-dashoffset:0;marker:none;visibility:visible;display:inline;overflow:visible;filter:url(#filter4191-8-0);enable-background:accumulate" />
      <path
         d="M 318.3437,541.61518 C 286.12854,514.66596 241.61367,492.01582 220.85968,477.76681"
         id="path4216"
         style="color:#000000;fill:none;stroke:#fcded0;stroke-width:2.07732654;stroke-linecap:butt;stroke-linejoin:miter;stroke-miterlimit:4;stroke-opacity:1;stroke-dasharray:none;stroke-dashoffset:0;marker:none;visibility:visible;display:inline;overflow:visible;filter:url(#filter4191-8-0);enable-background:accumulate" />
      <path
         d="M 327.98388,527.98568 C 287.40517,510.01954 240.99415,487.3694 227.67442,473.43015"
         id="path4218"
         style="color:#000000;fill:none;stroke:#fcded0;stroke-width:2.07732654;stroke-linecap:butt;stroke-linejoin:miter;stroke-miterlimit:4;stroke-opacity:1;stroke-dasharray:none;stroke-dashoffset:0;marker:none;visibility:visible;display:inline;overflow:visible;filter:url(#filter4191-8-0);enable-background:accumulate" />
      <path
         d="m 326.81999,518.16406 c -27.56874,-16.7271 -74.36468,-38.53868 -96.66748,-43.80462"
         id="path4220"
         style="color:#000000;fill:none;stroke:#fcded0;stroke-width:2.07732654;stroke-linecap:butt;stroke-linejoin:miter;stroke-miterlimit:4;stroke-opacity:1;stroke-dasharray:none;stroke-dashoffset:0;marker:none;visibility:visible;display:inline;overflow:visible;filter:url(#filter4191-8-0);enable-background:accumulate" />
      <path
         d="M 334.80184,501.76551 C 292.98409,490.92387 278.78501,471.57159 232.94036,471.88134"
         id="path4222"
         style="color:#000000;fill:none;stroke:#fcded0;stroke-width:2.07732654;stroke-linecap:butt;stroke-linejoin:miter;stroke-miterlimit:4;stroke-opacity:1;stroke-dasharray:none;stroke-dashoffset:0;marker:none;visibility:visible;display:inline;overflow:visible;filter:url(#filter4191-8-0);enable-background:accumulate" />
    </g>
    <path
       d="m 349.50457,346.00123 c -11.16616,20.33821 54.05988,118.47765 93.9426,152.99227 44.01102,38.0872 104.34377,106.17716 160.14982,101.10017 44.25424,-4.02607 37.57706,-43.83991 47.41866,-59.04967 9.8416,-15.20976 16.25984,-9.32785 27.73546,-34.89296 10.25076,-22.83654 -5.36819,-36.68237 -3e-5,-49.20807 5.36816,-12.52567 31.81273,-34.8309 25.05139,-59.94433 -6.26285,-23.26199 -93.94264,-60.83902 -174.46486,-70.68062 -76.62774,-9.3656 -168.66688,-0.65501 -179.83304,19.68321 z"
       id="path4193-2"
       style="color:#000000;fill:none;stroke:#eb6e5d;stroke-width:7;stroke-linecap:butt;stroke-linejoin:miter;stroke-miterlimit:4;stroke-opacity:1;stroke-dasharray:none;stroke-dashoffset:0;marker:none;visibility:visible;display:inline;overflow:visible;enable-background:accumulate" />
  </g>
  <g
     id="layer6"
     style="display:inline">
    <path
       d="m 347.64414,343.19287 c 16.90645,29.18913 134.69038,22.69793 177.35636,22.10634 70.92699,-0.98344 158.41219,-3.63684 167.49991,-41.60682 8.35891,-34.92486 -22.55974,-71.0226 -27.09427,-81.40342 -4.53456,-10.38086 -4.20708,-27.17368 -14.81837,-48.27581 C 641.51441,175.96943 623.96903,163.532 617.45059,153.59254 610.93218,143.65309 601.31665,108.98197 575.71645,92.331947 555.7501,79.34614 487.51887,136.82932 444.2765,185.28802 401.03413,233.74671 330.73766,314.00378 347.64414,343.19287 z"
       id="path4125-9"
       style="color:#000000;fill:#ea4e45;fill-opacity:1;stroke:none;stroke-width:1px;marker:none;visibility:visible;display:inline;overflow:visible;enable-background:accumulate" />
    <g
       transform="matrix(2.8883279,0,0,2.8883279,-266.04332,-1028.5778)"
       id="g4411"
       style="opacity:0.62999998;color:#000000;fill:none;stroke:#f9bba1;stroke-width:2.07732654;stroke-linecap:butt;stroke-linejoin:miter;stroke-miterlimit:4;stroke-opacity:1;stroke-dasharray:none;stroke-dashoffset:0;marker:none;visibility:visible;display:inline;overflow:visible;filter:url(#filter4309-7);enable-background:accumulate">
      <path
         d="m 332.15748,465.71094 c -48.66776,8.7602 -103.76002,9.60373 -116.65698,8.87371"
         id="path4404"
         style="color:#000000;fill:none;stroke:#f9bba1;stroke-width:2.07732654;stroke-linecap:butt;stroke-linejoin:miter;stroke-miterlimit:4;stroke-opacity:1;stroke-dasharray:none;stroke-dashoffset:0;marker:none;visibility:visible;display:inline;overflow:visible;filter:url(#filter4309-7);enable-background:accumulate" />
      <path
         d="m 329.11574,451.71896 c -36.9875,0.73002 -93.7262,21.81128 -112.46329,21.81128"
         id="path4406"
         style="color:#000000;fill:none;stroke:#f9bba1;stroke-width:2.07732654;stroke-linecap:butt;stroke-linejoin:miter;stroke-miterlimit:4;stroke-opacity:1;stroke-dasharray:none;stroke-dashoffset:0;marker:none;visibility:visible;display:inline;overflow:visible;filter:url(#filter4309-7);enable-background:accumulate" />
      <path
         d="m 321.57224,438.457 c -28.2273,7.78684 -100.13168,29.18904 -107.91852,34.78583"
         id="path4408"
         style="color:#000000;fill:none;stroke:#f9bba1;stroke-width:2.07732654;stroke-linecap:butt;stroke-linejoin:miter;stroke-miterlimit:4;stroke-opacity:1;stroke-dasharray:none;stroke-dashoffset:0;marker:none;visibility:visible;display:inline;overflow:visible;filter:url(#filter4309-7);enable-background:accumulate" />
      <path
         d="M 317.43547,423.85666 C 283.61138,434.56357 228.18673,465.82462 217.35,472.65425"
         id="path4410"
         style="color:#000000;fill:none;stroke:#f9bba1;stroke-width:2.07732654;stroke-linecap:butt;stroke-linejoin:miter;stroke-miterlimit:4;stroke-opacity:1;stroke-dasharray:none;stroke-dashoffset:0;marker:none;visibility:visible;display:inline;overflow:visible;filter:url(#filter4309-7);enable-background:accumulate" />
      <path
         d="m 309.04029,413.14975 c -37.47418,13.62698 -76.16505,49.39778 -89.79202,57.91465"
         id="path4412"
         style="color:#000000;fill:none;stroke:#f9bba1;stroke-width:2.07732654;stroke-linecap:butt;stroke-linejoin:miter;stroke-miterlimit:4;stroke-opacity:1;stroke-dasharray:none;stroke-dashoffset:0;marker:none;visibility:visible;display:inline;overflow:visible;filter:url(#filter4309-7);enable-background:accumulate" />
      <path
         d="m 296.75169,393.07429 c -45.01769,22.38718 -67.02386,62.01097 -81.93228,78.08762"
         id="path4414"
         style="color:#000000;fill:none;stroke:#f9bba1;stroke-width:2.07732654;stroke-linecap:butt;stroke-linejoin:miter;stroke-miterlimit:4;stroke-opacity:1;stroke-dasharray:none;stroke-dashoffset:0;marker:none;visibility:visible;display:inline;overflow:visible;filter:url(#filter4309-7);enable-background:accumulate" />
      <path
         d="m 302.59182,402.68618 c -33.8241,20.19713 -68.86505,54.72711 -87.3588,68.59741"
         id="path4414-4"
         style="color:#000000;fill:none;stroke:#f9bba1;stroke-width:2.07732654;stroke-linecap:butt;stroke-linejoin:miter;stroke-miterlimit:4;stroke-opacity:1;stroke-dasharray:none;stroke-dashoffset:0;marker:none;visibility:visible;display:inline;overflow:visible;filter:url(#filter4309-7);enable-background:accumulate" />
    </g>
    <path
       d="m 347.64414,343.19287 c 16.90645,29.18913 134.69038,22.69793 177.35636,22.10634 70.92699,-0.98344 158.41219,-3.63684 167.49991,-41.60682 8.35891,-34.92486 -22.55974,-71.0226 -27.09427,-81.40342 -4.53456,-10.38086 -4.20708,-27.17368 -14.81837,-48.27581 C 641.51441,175.96943 623.96903,163.532 617.45059,153.59254 610.93218,143.65309 601.31665,108.98197 575.71645,92.331947 555.7501,79.34614 487.51887,136.82932 444.2765,185.28802 401.03413,233.74671 330.73766,314.00378 347.64414,343.19287 z"
       id="path4125-9-5"
       style="color:#000000;fill:none;stroke:#d13a33;stroke-width:7;stroke-linecap:butt;stroke-linejoin:miter;stroke-miterlimit:4;stroke-opacity:1;stroke-dasharray:none;stroke-dashoffset:0;marker:none;visibility:visible;display:inline;overflow:visible;enable-background:accumulate" />
  </g>
  <g
     id="layer9"
     style="display:inline">
    <path
       d="m 258.30758,392.43993 c 0,4.39942 -3.56642,7.96584 -7.96584,7.96584 -4.39944,0 -7.96586,-3.56642 -7.96586,-7.96584 0,-4.39941 3.56642,-7.96586 7.96586,-7.96586 4.39942,0 7.96584,3.56645 7.96584,7.96586 z"
       id="path3890"
       style="color:#000000;fill:#3c3c3c;fill-opacity:1;stroke:none;stroke-width:1px;marker:none;visibility:visible;display:inline;overflow:visible;enable-background:accumulate" />
    <path
       d="m 259.10415,414.34602 c 0,4.39942 -3.56642,7.96584 -7.96584,7.96584 -4.39944,0 -7.96586,-3.56642 -7.96586,-7.96584 0,-4.39941 3.56642,-7.96586 7.96586,-7.96586 4.39942,0 7.96584,3.56645 7.96584,7.96586 z"
       id="path3890-6"
       style="color:#000000;fill:#3c3c3c;fill-opacity:1;stroke:none;stroke-width:1px;marker:none;visibility:visible;display:inline;overflow:visible;enable-background:accumulate" />
    <path
       d="m 278.22222,405.98189 c 0,4.39941 -3.56642,7.96583 -7.96583,7.96583 -4.39944,0 -7.96587,-3.56642 -7.96587,-7.96583 0,-4.39942 3.56643,-7.96586 7.96587,-7.96586 4.39941,0 7.96583,3.56644 7.96583,7.96586 z"
       id="path3890-65"
       style="color:#000000;fill:#3c3c3c;fill-opacity:1;stroke:none;stroke-width:1px;marker:none;visibility:visible;display:inline;overflow:visible;enable-background:accumulate" />
    <path
       d="m 233.81398,326.9222 c 0,4.39942 -3.56642,7.96584 -7.96584,7.96584 -4.39944,0 -7.96586,-3.56642 -7.96586,-7.96584 0,-4.39941 3.56642,-7.96586 7.96586,-7.96586 4.39942,0 7.96584,3.56645 7.96584,7.96586 z"
       id="path3890-2"
       style="color:#000000;fill:#3c3c3c;fill-opacity:1;stroke:none;stroke-width:1px;marker:none;visibility:visible;display:inline;overflow:visible;enable-background:accumulate" />
    <path
       d="m 253.33032,332.49829 c 0,4.39942 -3.56642,7.96584 -7.96583,7.96584 -4.39944,0 -7.96586,-3.56642 -7.96586,-7.96584 0,-4.39941 3.56642,-7.96586 7.96586,-7.96586 4.39941,0 7.96583,3.56645 7.96583,7.96586 z"
       id="path3890-4"
       style="color:#000000;fill:#3c3c3c;fill-opacity:1;stroke:none;stroke-width:1px;marker:none;visibility:visible;display:inline;overflow:visible;enable-background:accumulate" />
    <path
       d="m 252.93202,312.98195 c 0,4.39941 -3.56642,7.96583 -7.96583,7.96583 -4.39944,0 -7.96586,-3.56642 -7.96586,-7.96583 0,-4.39942 3.56642,-7.96587 7.96586,-7.96587 4.39941,0 7.96583,3.56645 7.96583,7.96587 z"
       id="path3890-28"
       style="color:#000000;fill:#3c3c3c;fill-opacity:1;stroke:none;stroke-width:1px;marker:none;visibility:visible;display:inline;overflow:visible;enable-background:accumulate" />
    <path
       d="m 283.00454,254.63065 c 0,4.39941 -3.56642,7.96583 -7.96583,7.96583 -4.39944,0 -7.96587,-3.56642 -7.96587,-7.96583 0,-4.39942 3.56643,-7.96587 7.96587,-7.96587 4.39941,0 7.96583,3.56645 7.96583,7.96587 z"
       id="path3890-7"
       style="color:#000000;fill:#3c3c3c;fill-opacity:1;stroke:none;stroke-width:1px;marker:none;visibility:visible;display:inline;overflow:visible;enable-background:accumulate" />
    <path
       d="m 309.69015,255.02895 c 0,4.39941 -3.56642,7.96583 -7.96583,7.96583 -4.39945,0 -7.96587,-3.56642 -7.96587,-7.96583 0,-4.39942 3.56642,-7.96587 7.96587,-7.96587 4.39941,0 7.96583,3.56645 7.96583,7.96587 z"
       id="path3890-0"
       style="color:#000000;fill:#3c3c3c;fill-opacity:1;stroke:none;stroke-width:1px;marker:none;visibility:visible;display:inline;overflow:visible;enable-background:accumulate" />
    <path
       d="m 290.17381,273.74869 c 0,4.39942 -3.56642,7.96584 -7.96584,7.96584 -4.39944,0 -7.96586,-3.56642 -7.96586,-7.96584 0,-4.39941 3.56642,-7.96586 7.96586,-7.96586 4.39942,0 7.96584,3.56645 7.96584,7.96586 z"
       id="path3890-5"
       style="color:#000000;fill:#3c3c3c;fill-opacity:1;stroke:none;stroke-width:1px;marker:none;visibility:visible;display:inline;overflow:visible;enable-background:accumulate" />
    <path
       d="m 368.34926,254.84707 c -1.40601,4.16866 -5.9252,6.40825 -10.0939,5.00224 -4.16869,-1.40604 -6.40827,-5.92524 -5.00223,-10.09393 1.40601,-4.16867 5.9252,-6.40828 10.09392,-5.00224 4.16867,1.40601 6.40825,5.92523 5.00221,10.09393 z"
       id="path3890-24"
       style="color:#000000;fill:#3c3c3c;fill-opacity:1;stroke:none;stroke-width:1px;marker:none;visibility:visible;display:inline;overflow:visible;enable-background:accumulate" />
    <path
       d="m 380.24764,238.26365 c -1.40601,4.16869 -5.9252,6.40824 -10.0939,5.00223 -4.16869,-1.40603 -6.40827,-5.92523 -5.00223,-10.09392 1.40601,-4.16867 5.9252,-6.40828 10.09392,-5.00224 4.16867,1.40604 6.40825,5.92523 5.00221,10.09393 z"
       id="path3890-25"
       style="color:#000000;fill:#3c3c3c;fill-opacity:1;stroke:none;stroke-width:1px;marker:none;visibility:visible;display:inline;overflow:visible;enable-background:accumulate" />
    <path
       d="m 392.38032,262.11165 c -1.40601,4.16869 -5.9252,6.40824 -10.09389,5.00223 -4.1687,-1.40603 -6.40828,-5.92523 -5.00224,-10.09392 1.40601,-4.16867 5.9252,-6.40828 10.09393,-5.00224 4.16866,1.40604 6.40824,5.92523 5.0022,10.09393 z"
       id="path3890-72"
       style="color:#000000;fill:#3c3c3c;fill-opacity:1;stroke:none;stroke-width:1px;marker:none;visibility:visible;display:inline;overflow:visible;enable-background:accumulate" />
    <path
       d="m 439.73131,386.07007 c 0,4.39942 -3.56642,7.96584 -7.96583,7.96584 -4.39945,0 -7.96587,-3.56642 -7.96587,-7.96584 0,-4.39941 3.56642,-7.96586 7.96587,-7.96586 4.39941,0 7.96583,3.56645 7.96583,7.96586 z"
       id="path3890-70"
       style="color:#000000;fill:#3c3c3c;fill-opacity:1;stroke:none;stroke-width:1px;marker:none;visibility:visible;display:inline;overflow:visible;enable-background:accumulate" />
    <path
       d="m 455.26471,398.81543 c 0,4.39941 -3.56642,7.96583 -7.96583,7.96583 -4.39945,0 -7.96587,-3.56642 -7.96587,-7.96583 0,-4.39942 3.56642,-7.96587 7.96587,-7.96587 4.39941,0 7.96583,3.56645 7.96583,7.96587 z"
       id="path3890-63"
       style="color:#000000;fill:#3c3c3c;fill-opacity:1;stroke:none;stroke-width:1px;marker:none;visibility:visible;display:inline;overflow:visible;enable-background:accumulate" />
    <path
       d="m 431.76545,407.17959 c 0,4.39942 -3.56642,7.96584 -7.96584,7.96584 -4.39944,0 -7.96586,-3.56642 -7.96586,-7.96584 0,-4.39941 3.56642,-7.96586 7.96586,-7.96586 4.39942,0 7.96584,3.56645 7.96584,7.96586 z"
       id="path3890-68"
       style="color:#000000;fill:#3c3c3c;fill-opacity:1;stroke:none;stroke-width:1px;marker:none;visibility:visible;display:inline;overflow:visible;enable-background:accumulate" />
    <path
       d="m 367.59766,434.85098 c 0,4.39942 -3.56642,7.96584 -7.96584,7.96584 -4.39944,0 -7.96586,-3.56642 -7.96586,-7.96584 0,-4.39941 3.56642,-7.96586 7.96586,-7.96586 4.39942,0 7.96584,3.56645 7.96584,7.96586 z"
       id="path3890-9"
       style="color:#000000;fill:#3c3c3c;fill-opacity:1;stroke:none;stroke-width:1px;marker:none;visibility:visible;display:inline;overflow:visible;enable-background:accumulate" />
    <path
       d="m 364.41131,454.36733 c 0,4.39941 -3.56642,7.96583 -7.96583,7.96583 -4.39945,0 -7.96587,-3.56642 -7.96587,-7.96583 0,-4.39942 3.56642,-7.96587 7.96587,-7.96587 4.39941,0 7.96583,3.56645 7.96583,7.96587 z"
       id="path3890-51"
       style="color:#000000;fill:#3c3c3c;fill-opacity:1;stroke:none;stroke-width:1px;marker:none;visibility:visible;display:inline;overflow:visible;enable-background:accumulate" />
    <path
       d="m 345.29327,441.22364 c 0,4.39942 -3.56642,7.96584 -7.96584,7.96584 -4.39944,0 -7.96586,-3.56642 -7.96586,-7.96584 0,-4.39941 3.56642,-7.96586 7.96586,-7.96586 4.39942,0 7.96584,3.56645 7.96584,7.96586 z"
       id="path3890-09"
       style="color:#000000;fill:#3c3c3c;fill-opacity:1;stroke:none;stroke-width:1px;marker:none;visibility:visible;display:inline;overflow:visible;enable-background:accumulate" />
    <path
       d="m 432.96032,303.82121 c 0,4.39941 -3.56642,7.96584 -7.96583,7.96584 -4.39945,0 -7.96587,-3.56643 -7.96587,-7.96584 0,-4.39941 3.56642,-7.96586 7.96587,-7.96586 4.39941,0 7.96583,3.56645 7.96583,7.96586 z"
       id="path3890-69"
       style="color:#000000;fill:#3c3c3c;fill-opacity:1;stroke:none;stroke-width:1px;marker:none;visibility:visible;display:inline;overflow:visible;enable-background:accumulate" />
    <path
       d="m 444.11253,321.34608 c 0,4.39942 -3.56642,7.96587 -7.96584,7.96587 -4.39944,0 -7.96586,-3.56645 -7.96586,-7.96587 0,-4.39938 3.56642,-7.96583 7.96586,-7.96583 4.39942,0 7.96584,3.56645 7.96584,7.96583 z"
       id="path3890-73"
       style="color:#000000;fill:#3c3c3c;fill-opacity:1;stroke:none;stroke-width:1px;marker:none;visibility:visible;display:inline;overflow:visible;enable-background:accumulate" />
    <path
       d="m 454.06984,302.22804 c 0,4.39941 -3.56642,7.96583 -7.96584,7.96583 -4.39944,0 -7.96586,-3.56642 -7.96586,-7.96583 0,-4.39942 3.56642,-7.96587 7.96586,-7.96587 4.39942,0 7.96584,3.56645 7.96584,7.96587 z"
       id="path3890-03"
       style="color:#000000;fill:#3c3c3c;fill-opacity:1;stroke:none;stroke-width:1px;marker:none;visibility:visible;display:inline;overflow:visible;enable-background:accumulate" />
  </g>
  <g
     id="layer1"
     style="display:inline">
    <g
       transform="matrix(2.8883279,0,0,2.8883279,-266.04332,-1028.5778)"
       id="g4752"
       style="fill:#fafafa;fill-opacity:1;stroke:#ebad91;stroke-width:1.55799484;stroke-miterlimit:4;stroke-opacity:1;stroke-dasharray:none">
      <path
         d="m 204.36383,495.77896 c -13.00413,16.66754 -22.07258,13.53196 -6.61908,-5.79169 15.0648,-18.8376 19.6824,-10.95173 6.61908,5.79169 z"
         id="path3812"
         style="color:#000000;fill:#fafafa;fill-opacity:1;stroke:#ebad91;stroke-width:1.55799484;stroke-linecap:butt;stroke-linejoin:miter;stroke-miterlimit:4;stroke-opacity:1;stroke-dasharray:none;stroke-dashoffset:0;marker:none;visibility:visible;display:inline;overflow:visible;enable-background:accumulate" />
      <path
         d="m 188.67649,483.00932 c -25.64731,2.35452 -24.57381,-4.06091 -2.03075,-6.02923 25.87193,-2.25899 26.35015,3.79661 2.03075,6.02923 z"
         id="path3812-6"
         style="color:#000000;fill:#fafafa;fill-opacity:1;stroke:#ebad91;stroke-width:1.55799484;stroke-linecap:butt;stroke-linejoin:miter;stroke-miterlimit:4;stroke-opacity:1;stroke-dasharray:none;stroke-dashoffset:0;marker:none;visibility:visible;display:inline;overflow:visible;enable-background:accumulate" />
      <path
         d="m 195.00083,460.87161 c 17.76115,15.62358 14.74365,20.36911 -4.03353,4.25602 -18.30487,-15.7078 -13.37088,-19.5658 4.03353,-4.25602 z"
         id="path3812-7"
         style="color:#000000;fill:#fafafa;fill-opacity:1;stroke:#ebad91;stroke-width:1.55799484;stroke-linecap:butt;stroke-linejoin:miter;stroke-miterlimit:4;stroke-opacity:1;stroke-dasharray:none;stroke-dashoffset:0;marker:none;visibility:visible;display:inline;overflow:visible;enable-background:accumulate" />
      <path
         d="m 211.73642,455.01962 c 2.32168,24.35065 -6.37202,26.00483 -8.79162,0.25174 -2.49185,-26.52209 6.48448,-24.44993 8.79162,-0.25174 z"
         id="path3812-5"
         style="color:#000000;fill:#fafafa;fill-opacity:1;stroke:#ebad91;stroke-width:1.55799484;stroke-linecap:butt;stroke-linejoin:miter;stroke-miterlimit:4;stroke-opacity:1;stroke-dasharray:none;stroke-dashoffset:0;marker:none;visibility:visible;display:inline;overflow:visible;enable-background:accumulate" />
      <path
         d="m 227.21563,465.36243 c -18.45884,14.89825 -22.50296,10.00365 -6.61908,-5.79169 17.55318,-17.45533 24.30821,-8.48532 6.61908,5.79169 z"
         id="path3812-2"
         style="color:#000000;fill:#fafafa;fill-opacity:1;stroke:#ebad91;stroke-width:1.55799484;stroke-linecap:butt;stroke-linejoin:miter;stroke-miterlimit:4;stroke-opacity:1;stroke-dasharray:none;stroke-dashoffset:0;marker:none;visibility:visible;display:inline;overflow:visible;enable-background:accumulate" />
      <path
         d="m 232.55599,482.67935 c -24.49628,-3.65736 -28.22942,-10.72622 1.39722,-6.97986 25.43402,3.2162 21.57378,10.4095 -1.39722,6.97986 z"
         id="path3812-55"
         style="color:#000000;fill:#fafafa;fill-opacity:1;stroke:#ebad91;stroke-width:1.55799484;stroke-linecap:butt;stroke-linejoin:miter;stroke-miterlimit:4;stroke-opacity:1;stroke-dasharray:none;stroke-dashoffset:0;marker:none;visibility:visible;display:inline;overflow:visible;enable-background:accumulate" />
      <path
         d="m 221.78857,496.45186 c -15.64306,-23.51564 -10.74152,-28.12252 6.00147,-3.68062 12.37866,18.07071 5.45985,20.91001 -6.00147,3.68062 z"
         id="path3812-1"
         style="color:#000000;fill:#fafafa;fill-opacity:1;stroke:#ebad91;stroke-width:1.55799484;stroke-linecap:butt;stroke-linejoin:miter;stroke-miterlimit:4;stroke-opacity:1;stroke-dasharray:none;stroke-dashoffset:0;marker:none;visibility:visible;display:inline;overflow:visible;enable-background:accumulate" />
    </g>
    <path
       d="m 364.0557,346.04025 c 0,10.99855 -10.34264,19.91464 -23.10096,19.91464 -12.75832,0 -23.10099,-8.91609 -23.10099,-19.91464 0,-10.99855 10.34267,-19.91462 23.10099,-19.91462 12.75832,0 23.10096,8.91607 23.10096,19.91462 z"
       id="path3869"
       style="color:#000000;fill:#3c3c3c;fill-opacity:1;stroke:none;stroke-width:1px;marker:none;visibility:visible;display:inline;overflow:visible;enable-background:accumulate" />
  </g>
</svg>
